<svg clip-rule="evenodd" fill-rule="evenodd" stroke-linejoin="round" stroke-miterlimit="2" viewBox="0 0 10240 10240" xmlns="http://www.w3.org/2000/svg"><path d="m4687.2 10151.5c-384.47-28.1-737.45-101.2-1146.65-236.07-203.47-67.44-340.62-120.28-490.13-188.85-33.72-15.74-102.3-47.22-151.76-68.58-245.07-109.04-601.43-311.39-849.87-484.51-206.84-142.77-501.37-412.57-629.53-573.32-84.31-106.8-257.43-359.74-464.276-680.12-41.594-65.2-87.685-136.02-101.175-157.38-14.614-21.36-69.698-114.67-122.533-207.97-53.96-92.18-102.299-176.5-107.92-185.49-6.745-8.99-56.208-105.67-110.168-213.59-92.181-182.11-124.782-252.94-184.362-399.08-13.49-30.35-30.352-70.82-38.222-89.93-21.359-49.46-82.063-227.08-100.05-292.28-115.789-430.56-134.899-578.94-134.899-1039.85 0-396.83 21.359-674.5 74.194-966.78 43.843-241.69 50.588-276.54 88.809-432.8 21.359-86.56 56.208-200.1 104.547-348.49 68.574-205.72 83.188-247.32 95.554-270.92 6.745-11.25 32.6-71.95 58.456-133.78 59.581-140.52 151.762-324.88 219.212-438.42 28.104-47.22 50.587-88.81 50.587-93.31 0-3.37 12.366-24.73 26.98-46.09 14.614-22.48 70.822-109.04 125.906-192.23 390.08-592.43 908.32-1115.17 1488.39-1501.879 171.99-114.664 409.19-249.564 601.43-341.745 258.55-123.658 312.51-145.017 601.42-246.191 86.56-30.353 315.89-93.306 449.67-123.658 478.89-109.044 958.91-146.141 1478.27-113.54 247.31 15.738 546.34 57.332 736.32 103.423 28.11 6.745 78.69 17.986 112.42 25.855 145.02 32.601 376.59 104.547 528.35 163.004 33.73 13.49 74.2 28.104 89.94 33.724 187.73 62.953 620.53 290.034 863.35 453.037 290.04 194.48 512.62 379.97 766.68 636.27 268.68 270.93 437.3 478.9 646.39 795.91 156.26 238.32 186.61 290.04 317.02 542.97 55.08 106.8 228.2 493.51 228.2 510.37 0 3.37 16.86 50.59 38.22 105.67 20.24 53.96 48.34 136.03 62.96 182.12 14.61 46.09 30.35 96.67 37.09 112.41 5.62 15.74 16.87 53.96 24.74 84.31 8.99 31.48 25.85 96.68 39.34 146.15 13.5 49.46 29.2 112.41 33.7 140.52 5.6 28.1 18 80.93 27 118.03 10.1 35.98 18 76.44 18 89.94 0 12.36 6.7 58.45 15.7 101.17 51.7 249.56 79.8 563.2 79.8 893.71 0 231.57-19.1 532.85-39.3 607.04-5.6 21.36-15.7 77.57-22.5 123.66-5.6 46.09-21.3 127.03-33.7 179.87-12.4 52.83-29.2 125.9-37.1 164.13-9 37.09-21.4 85.43-28.1 106.79-6.8 21.36-22.5 74.2-35.98 116.91-13.49 43.85-30.36 96.68-38.22 118.04-9 21.36-25.86 67.45-38.23 101.17-32.6 88.81-82.06 214.72-92.18 234.95-4.49 10.12-15.73 35.98-24.73 57.34-23.61 52.83-164.13 338.37-177.62 359.73-5.62 8.99-31.47 55.08-57.33 101.17-290.03 514.87-743.07 1047.72-1234.33 1450.17-76.44 62.95-156.25 124.78-175.37 138.27-20.23 13.49-78.69 55.09-130.4 92.18-110.17 79.82-165.25 114.67-324.88 207.97-65.2 38.22-125.91 73.07-134.9 78.69-49.46 31.48-391.21 193.36-483.39 229.33-58.46 23.61-121.41 49.47-140.52 57.34-33.72 15.73-114.66 42.71-179.87 61.82-17.98 4.5-48.33 14.62-67.45 21.36-94.42 32.6-442.92 121.43-517.11 131.53-17.99 3.4-71.95 12.4-118.04 21.4-396.82 76.4-903.82 102.3-1365.85 67.4zm944.29-118c43.85-6.8 119.16-16.9 168.63-22.5 209.09-23.62 536.22-94.44 786.91-168.64 43.84-13.49 98.93-29.22 123.66-34.85 23.61-6.74 49.46-15.73 56.21-20.23 5.62-5.62 25.85-12.37 43.84-16.86 46.09-11.24 221.46-80.94 319.26-125.91 44.97-21.36 84.31-38.22 87.68-38.22 7.87 0 254.06-122.53 268.68-133.78 5.62-5.62 41.59-25.85 78.69-46.08 123.66-68.58 106.8-57.34 303.52-186.62 360.86-236.07 762.19-591.3 1039.85-921.81 176.5-207.97 293.41-366.47 426.06-572.2 71.95-113.54 88.81-140.52 150.64-252.93 19.11-33.73 46.09-82.07 60.7-106.8 13.49-24.73 29.23-52.83 32.6-61.83 4.5-8.99 26.98-57.33 49.47-106.79 82.06-175.37 98.92-214.72 129.27-292.28 15.74-42.72 37.1-96.68 44.97-118.04 22.48-56.21 49.46-131.53 67.45-191.11 62.95-212.46 85.44-301.27 130.4-505.87 33.72-149.51 65.22-430.55 71.92-629.53 7.9-221.46-5.6-557.58-27-702.6-29.2-192.23-48.29-319.26-56.16-376.59-8.99-61.83-33.72-177.62-62.95-292.29-46.09-183.23-66.33-256.31-78.69-292.28-7.87-21.36-24.74-77.57-39.35-123.66-13.49-46.09-32.6-97.8-40.47-114.66-8.99-15.74-15.74-38.22-15.74-50.59-1.12-11.24-10.11-40.47-22.48-65.2s-21.36-52.84-22.48-62.95c0-9-7.87-26.98-16.87-39.35-8.99-11.24-16.86-28.1-16.86-35.97 0-22.48-56.21-145.02-175.37-390.09-112.41-228.2-198.97-381.09-320.38-564.32-417.07-628.41-898.21-1103.93-1512-1490.641-47.21-29.229-86.56-52.836-88.81-52.836s-31.47-15.738-64.07-34.849c-76.45-46.091-382.22-201.225-395.71-201.225-5.62 0-42.72-15.738-82.06-33.725-73.07-34.849-137.15-59.58-202.35-79.815-20.24-5.621-50.59-17.987-67.45-26.98-16.87-8.993-40.47-16.862-51.71-16.862-11.25 0-30.36-5.621-42.72-12.366-32.6-16.862-245.07-76.443-375.47-104.547-37.1-8.993-89.93-20.235-118.04-26.98-66.32-15.738-284.41-52.835-460.9-77.567-197.86-28.104-915.07-28.104-1090.44-1.124-65.2 10.117-146.14 21.359-179.87 25.856-116.91 12.365-510.37 97.802-635.15 138.271-17.98 6.745-71.94 22.484-118.03 35.973-106.8 32.601-216.97 71.947-342.87 123.658-24.73 10.118-67.45 28.104-95.56 39.346-59.58 23.607-301.27 136.023-326 150.637-9 5.621-53.96 29.229-98.93 52.836-46.09 22.483-100.05 53.96-121.41 68.574-21.36 13.49-41.59 25.855-43.84 25.855-8.99 0-255.19 159.631-336.13 216.961-337.24 240.57-678.99 551.97-917.31 835.25-95.56 114.67-140.52 168.63-220.34 274.3-101.17 132.65-104.54 137.15-191.104 269.8-109.044 164.13-136.024 205.72-167.5 264.18-16.863 31.47-43.842 78.69-58.457 106.79-146.14 257.43-293.406 611.55-385.587 921.81-13.49 46.09-29.228 96.68-33.725 112.42-19.11 55.08-77.567 320.38-111.292 500.25-86.56 460.91-103.422 1198.36-35.973 1574.95 22.484 128.16 25.856 143.89 68.574 302.4 33.725 123.66 112.416 357.48 124.782 369.85 5.621 6.74 10.117 19.11 10.117 29.23 0 8.99 10.118 35.97 22.484 59.58 12.365 22.48 22.483 46.09 22.483 52.83 0 10.12 80.939 184.37 148.389 320.39 34.849 70.82 112.416 218.09 154.01 292.28 21.359 37.1 44.967 79.82 53.96 95.55 8.993 15.74 24.731 41.6 34.849 58.46 10.117 15.74 35.973 59.58 57.332 95.56 88.809 152.88 509.248 786.91 582.318 877.96 98.92 123.66 206.84 236.08 323.76 337.25 114.66 98.93 368.72 294.53 382.21 294.53 3.37 0 30.35 16.87 59.58 37.1 64.08 44.97 203.47 131.53 211.34 131.53 2.25 0 23.61 12.36 47.22 26.98 37.1 22.48 180.99 102.3 268.67 146.14 57.33 30.35 243.95 115.79 318.14 147.26 40.47 16.86 88.81 37.1 106.8 46.09 33.72 14.62 198.97 77.57 303.52 115.79 31.48 12.37 94.43 32.6 140.52 46.09s94.43 28.11 106.79 32.6c50.59 20.24 403.58 102.3 528.36 123.66 242.82 40.52 312.52 49.42 438.42 58.42 168.63 11.3 812.77 2.3 910.57-12.3z" fill="#038656" fill-rule="nonzero"/><path d="m4687.28 10079.1c-125.91-9-195.6-18-438.42-58.5-124.79-21.32-477.77-103.38-528.36-123.61-12.36-4.5-60.7-19.11-106.79-32.6s-109.05-33.73-140.53-46.09c-104.54-38.23-269.79-101.18-303.52-115.79-17.98-9-66.32-29.23-106.79-46.09-74.2-31.48-260.81-116.92-318.14-147.27-87.68-43.84-231.58-123.66-268.68-146.14-23.6-14.61-44.96-26.98-47.21-26.98-7.87 0-147.26-86.56-211.34-131.53-29.23-20.23-56.21-37.09-59.58-37.09-13.49 0-267.55-195.61-382.22-294.53-116.91-101.18-224.83-213.59-323.76-337.25-73.07-91.06-493.503-725.09-582.311-877.97-21.359-35.97-47.215-79.82-57.333-95.56-10.117-16.86-25.855-42.71-34.849-58.45-8.993-15.74-32.6-58.46-53.959-95.56-41.594-74.19-119.161-221.45-154.01-292.28-67.45-136.02-148.39-310.27-148.39-320.38 0-6.75-10.117-30.36-22.483-52.84-12.366-23.61-22.483-50.59-22.483-59.58 0-10.12-4.497-22.48-10.117-29.23-19.111-19.11-102.299-282.16-159.631-503.62-59.581-227.08-82.064-521.61-73.071-967.9 7.869-404.7 34.849-656.51 110.168-1017.37 28.104-136.02 64.077-290.03 76.443-326.01 4.497-15.74 20.235-66.32 33.725-112.41 92.181-310.27 239.446-664.38 385.587-921.81 14.614-28.11 41.594-75.32 58.456-106.8 31.477-58.46 58.457-100.05 167.5-264.18 86.558-132.65 89.938-137.15 191.108-269.8 79.82-105.67 124.78-159.63 220.33-274.29 238.33-283.29 580.07-594.68 917.32-835.25 80.94-57.336 327.13-216.967 336.13-216.967 2.24 0 22.48-12.365 43.84-25.855 21.36-14.614 75.32-46.091 121.41-68.574 44.96-23.608 89.93-47.215 98.92-52.836 24.73-14.614 266.43-127.03 326.01-150.637 28.1-11.242 70.82-29.228 95.55-39.346 125.91-51.711 236.08-91.057 342.87-123.658 46.09-13.49 100.05-29.228 118.04-35.973 124.78-40.47 518.24-125.906 635.15-138.272 33.73-4.496 114.66-15.738 179.87-25.855 176.49-28.104 958.91-26.98 1157.88 1.124 177.62 24.731 394.58 61.829 460.91 77.567 28.1 6.745 80.94 17.987 118.03 26.98 130.41 28.104 342.87 87.684 375.47 104.547 12.37 6.745 31.48 12.366 42.72 12.366s34.85 7.869 51.71 16.862c16.87 8.993 47.22 21.359 67.45 26.98 65.21 20.235 129.28 44.966 202.35 79.815 39.35 17.987 76.44 33.725 82.07 33.725 13.49 0 319.26 155.134 395.7 201.225 32.6 19.111 61.83 34.849 64.08 34.849s41.59 23.607 88.81 52.835c613.79 386.708 1094.93 862.228 1511.99 1490.638 121.41 183.24 207.97 336.12 320.39 564.33 119.16 245.07 175.37 367.6 175.37 390.08 0 7.87 7.87 24.73 16.86 35.98 8.99 12.36 16.86 30.35 16.86 39.34 1.13 10.12 10.12 38.22 22.49 62.95 12.36 24.74 21.36 53.96 22.48 65.21 0 12.36 6.74 34.85 15.74 50.58 7.87 16.87 26.98 68.58 40.47 114.67 14.61 46.09 31.47 102.3 39.34 123.66 12.37 35.97 32.6 109.04 78.69 292.28 29.23 114.66 54.01 230.45 62.91 292.28 7.9 58.45 29.3 198.98 56.3 376.59 21.3 147.27 34.8 493.51 28.1 738.58-6.8 227.08-36 496.88-73.1 661-44.98 204.6-67.46 293.41-130.41 505.88-17.99 59.58-44.97 134.9-67.45 191.1-7.87 21.36-29.23 75.32-44.97 118.04-30.35 77.57-47.21 116.91-129.28 292.28-22.48 49.47-44.96 97.8-49.46 106.8-3.37 8.99-19.11 37.09-32.6 61.83-14.62 24.73-41.6 73.07-60.71 106.79-61.83 112.42-78.69 139.4-150.63 252.94-132.65 205.72-249.57 364.23-426.06 572.19-83.19 98.93-142.77 161.89-291.16 310.27-240.57 239.45-487.88 440.67-748.69 611.55-196.73 129.28-179.87 118.03-303.52 186.61-37.1 20.23-73.07 40.47-78.7 46.09-14.61 11.24-260.8 133.77-268.67 133.77-3.37 0-42.72 16.87-87.68 38.22-97.81 44.97-273.17 114.67-319.27 125.91-17.98 4.5-38.22 11.24-43.84 16.86-6.74 4.5-32.6 13.49-56.21 20.24-24.73 5.62-79.81 21.36-123.65 34.85-252.94 75.32-575.57 143.87-792.54 169.77-52.83 5.6-125.9 15.7-163 21.3-86.56 14.6-816.14 23.6-978.02 12.4z" fill="#edb846" fill-rule="nonzero"/><path d="m5944.32 9287.47c-5.68-10.21-17.02-83.93-41.97-274.48-6.81-53.31-19.28-127.04-28.36-165.6-9.07-37.43-15.88-83.94-15.88-104.35 0-19.28-10.2-61.25-22.68-93.01s-22.69-69.19-22.69-82.8-17.01-60.11-38.56-104.35c-21.55-43.1-51.04-110.02-64.65-147.45-14.75-37.43-31.76-75.99-38.56-85.07-6.81-9.07-28.36-51.04-48.78-93-19.28-41.97-49.9-93.01-68.05-113.43-17.02-20.41-49.91-62.38-72.59-94.14-22.69-30.62-74.86-88.47-115.69-128.17-39.7-38.56-74.86-77.12-78.27-85.06-3.4-10.21-9.07-10.21-18.14-1.14-10.21 9.08-10.21 20.42-1.14 44.24 14.75 39.7-4.53 364.09-28.35 459.36-43.1 175.81-69.19 254.07-120.23 358.42-65.79 137.24-77.13 148.58-112.29 120.23-24.96-20.42-24.96-20.42 22.68-121.36 81.67-172.41 90.74-197.36 117.96-327.8 34.03-155.39 47.64-408.32 30.63-568.25-17.02-158.79-29.49-231.38-41.97-242.73-5.67-4.53-35.16-28.35-66.92-53.3-30.62-23.82-61.25-49.91-68.05-56.72-21.55-23.82-125.9-91.87-154.26-99.81-51.04-14.74-83.93-34.02-129.3-75.99-49.91-45.37-89.61-60.12-121.36-43.1-17.02 9.07-20.42 24.95-20.42 100.94 0 57.85-6.81 105.49-18.15 132.71-10.21 23.82-28.35 65.79-40.83 94.14-12.48 28.36-29.49 64.65-38.56 81.67-9.08 15.87-15.88 58.98-15.88 96.41 0 54.44 5.67 74.86 34.02 116.82 40.83 61.25 41.97 79.4 7.94 111.16-34.03 32.89-105.48 41.96-195.09 24.95-64.65-12.48-82.79-21.55-137.24-70.32-61.25-56.71-61.25-56.71-116.82-17.02-146.32 105.49-172.41 95.28-189.42-71.45-6.81-78.26-9.08-82.8-43.1-96.41-19.29-7.94-53.31-18.15-74.86-22.69-21.55-4.53-54.45-22.68-73.73-39.7-18.14-17.01-41.96-34.02-51.04-36.29-9.07-3.4-54.44 21.55-98.68 55.58-83.93 61.25-125.9 73.72-150.85 43.1-7.94-9.08-20.42-69.19-29.49-133.84-7.94-63.52-14.74-116.83-14.74-117.96-1.14-2.27-7.94-3.41-14.75-3.41-7.94 0-39.7-12.47-71.46-28.35-30.62-14.75-62.38-28.36-70.32-28.36-12.48 0-71.46 114.56-71.46 140.65 0 21.55-49.9 63.51-75.99 63.51-28.35 0-107.75-77.12-146.32-142.91-22.68-38.56-38.56-51.04-96.41-71.45-103.21-38.57-108.88-35.17-174.67 93-61.25 119.1-87.33 155.39-112.29 155.39-18.14 0-74.86-63.51-74.86-83.93 0-7.94-17.01-30.63-38.56-51.04-21.55-20.42-41.97-49.91-45.37-63.52-7.94-32.89-47.64-43.1-81.67-21.55-21.54 14.75-51.04 17.01-161.06 11.34-142.91-6.8-167.86-11.34-175.8-34.02-7.94-20.42 2.27-32.9 56.71-66.92 78.26-48.78 87.34-71.46 94.14-233.66 5.67-117.96 11.34-151.98 32.89-196.22 53.31-110.02 199.63-213.23 301.71-213.23 48.77 0 58.98-5.68 122.5-62.39 82.8-73.72 229.11-141.78 303.97-141.78 51.04 0 250.67-22.68 258.61-29.49 6.8-6.8 11.34-155.39 5.67-176.94-3.4-11.34-15.88-20.41-27.22-20.41-82.8 0-112.29-96.41-72.59-240.46 19.28-65.79 19.28-65.79-15.88-97.55-40.84-38.56-53.31-77.12-43.1-132.7 9.07-45.37 62.38-112.29 110.02-136.11 47.63-24.95 51.04-53.31 10.2-108.89-18.14-26.08-34.02-55.57-34.02-64.65 0-21.55 72.59-89.6 117.96-108.88 74.86-32.9 80.53-41.97 77.13-133.84-4.54-97.55 12.47-128.17 88.47-162.2 39.69-18.15 52.17-19.28 83.93-7.94 20.42 7.94 43.1 13.61 49.91 13.61 20.41 0 58.98-47.64 58.98-72.59 1.13-27.22 47.63-85.07 93-113.42 48.77-31.76 90.74-14.75 161.06 62.38 61.25 68.05 61.25 68.05 107.76 11.34 46.5-55.58 139.51-114.55 180.34-114.55 52.17 0 133.84 46.5 161.06 91.87 27.22 44.23 28.36 44.23 81.67 37.43 43.1-5.67 60.11-2.27 91.87 17.01 43.1 26.09 87.34 112.29 87.34 170.14 0 39.69 20.41 62.38 70.32 79.39 20.41 6.81 48.77 29.49 63.52 51.04 26.08 38.57 26.08 38.57 2.26 128.17-18.14 65.79-35.16 98.68-63.51 128.17-21.55 22.69-38.57 43.1-38.57 47.64 0 3.4 18.15 28.35 39.7 55.58 26.09 34.02 39.7 62.38 39.7 86.2 0 58.98-41.97 148.58-90.74 195.09-44.24 41.96-45.37 45.36-45.37 116.82 0 55.58-6.8 86.2-28.35 129.3-30.63 60.12-28.36 95.28 5.67 95.28 11.34 0 46.5 20.42 79.39 46.5 31.76 24.96 64.65 43.11 72.59 40.84 9.08-3.41 17.02-39.7 21.55-103.22 3.41-53.31 13.61-119.09 20.42-145.18 15.88-54.44 110.02-201.89 178.07-281.29 41.97-47.64 46.51-49.91 74.86-36.3 24.96 11.35 29.49 20.42 29.49 57.85 0 24.95 9.08 71.46 21.56 105.48 63.51 180.35 62.38 171.27 40.83 266.55-22.69 102.08-68.06 195.09-130.44 265.41-24.95 27.22-44.23 57.85-44.23 66.92 0 22.68 132.7 161.06 146.31 153.12 6.81-3.4 11.34-17.01 11.34-30.62 0-45.37 36.3-265.41 58.98-360.69 27.23-108.89 107.76-362.95 122.5-379.97 29.49-36.29 45.37-142.91 45.37-297.17 0-231.38-17.01-309.64-133.84-598.87-10.21-24.96-40.83-78.27-69.19-119.1-28.35-39.7-60.11-86.2-71.45-103.21-10.21-15.88-34.03-40.84-53.31-55.58-36.3-24.95-36.3-24.95-100.95 5.67-89.6 43.1-183.75 36.3-293.77-19.28-77.12-38.57-77.12-38.57-125.9-1.14-69.18 52.18-93 55.58-164.46 22.69-61.25-28.36-132.71-91.87-132.71-119.1 0-7.94-10.2-34.02-21.55-56.71-27.22-52.17-46.5-172.4-54.44-347.07-6.8-125.9-9.07-137.25-37.43-169-30.62-34.03-30.62-34.03-53.31-1.14-11.34 18.15-43.1 97.55-69.19 176.94-26.08 79.4-58.98 163.33-72.59 187.15-56.71 100.95-132.7 151.99-230.25 154.26-49.9 1.13-66.92-4.54-107.75-35.16-46.5-34.03-55.58-36.3-142.91-36.3-111.16 0-139.51-17.01-190.55-117.96-18.15-35.16-52.18-83.93-76-107.75-37.43-37.43-44.23-51.04-44.23-93.01 0-68.05 24.95-155.39 60.11-209.83 68.06-108.89 257.47-231.39 358.42-231.39 105.48-1.13 249.53-41.96 233.65-68.05-7.94-12.48-90.74-31.76-203.03-45.37-147.45-18.15-176.94-36.3-263.14-158.79-44.23-62.39-44.23-62.39-44.23-175.81 0-111.15 1.13-114.56 41.96-175.81 22.69-34.02 54.45-90.73 69.19-124.76 19.28-41.97 48.77-79.4 91.87-116.83 97.55-83.93 171.27-106.62 233.66-70.32 36.29 20.41 82.79 20.41 151.98 0 76-22.68 134.98-6.81 191.69 52.17 87.33 93.01 114.56 193.96 128.17 484.32 4.54 89.61 13.61 157.66 22.68 169 12.48 17.02 15.88 14.75 34.03-24.95s21.55-87.34 27.22-391.31c5.67-345.94 5.67-345.94 36.3-402.65 40.83-76 63.51-102.09 110.02-124.77 31.76-15.88 45.37-17.01 85.07-6.8 60.11 17.01 144.04 9.07 158.79-13.62 11.34-18.14 6.8-39.69-46.51-204.16-9.07-29.49-13.61-65.78-10.2-80.53 9.07-35.16 47.63-48.77 72.59-26.09 27.22 22.69 47.64 28.36 155.39 41.97 102.08 12.48 161.06 3.4 241.59-38.56 19.28-10.21 60.11-18.15 91.87-18.15 46.51 0 57.85-3.4 63.52-22.69 4.54-13.61 0-35.16-10.21-51.04-46.5-70.32-68.05-166.73-68.05-306.24 0-116.83 4.53-147.45 29.49-221.18 32.89-95.27 107.75-271.08 124.76-291.49 6.81-7.94 14.75-72.6 19.29-144.05 6.8-102.08 12.47-136.11 28.35-153.123 32.89-36.296 65.79-11.343 106.62 78.263 38.56 85.07 117.96 170.13 252.93 273.35 65.79 51.04 81.67 71.46 133.84 170.13 49.91 95.28 61.25 127.04 69.19 200.76 10.21 102.08 32.89 181.48 54.44 189.42 7.94 3.4 31.76-3.4 51.05-13.61 56.71-29.49 182.61-49.91 339.13-54.44 125.9-4.54 149.72-9.08 196.22-34.03 30.63-15.88 60.12-32.89 66.92-38.56 20.42-17.02 71.46-26.09 96.41-18.15 27.23 7.94 31.76 55.58 10.21 119.09-7.94 23.82-15.88 157.66-19.28 340.27-6.81 300.57-6.81 300.57-52.18 389.05-31.75 62.38-65.78 107.75-115.69 156.52-72.59 66.92-72.59 66.92-43.1 116.83 56.71 96.41 20.42 238.19-72.59 282.42-35.16 15.88-85.07 108.89-73.72 137.24 5.67 14.75 19.28 18.15 65.78 15.88 54.44-3.4 60.11-6.8 97.55-57.84 48.77-65.79 100.94-86.21 167.86-66.92 125.9 37.43 140.65 141.78 37.43 255.2-64.65 71.46-137.24 80.53-201.89 26.09-48.77-40.84-124.77-76-147.45-68.06-88.47 28.36-222.31 120.23-284.7 195.09-79.39 94.14-133.83 209.83-155.39 331.2-17.01 93-34.02 167.86-73.72 325.52-14.75 58.98 7.94 69.19 99.81 43.1 41.97-11.34 96.41-22.68 122.5-26.08 37.43-3.41 62.38-18.15 130.44-77.13 98.67-85.07 170.13-108.89 240.45-80.53 21.55 9.07 43.1 22.68 46.51 29.49 14.74 23.82 38.56 12.47 51.04-23.82 19.28-53.31 68.05-111.16 107.75-128.17 19.28-7.94 44.24-24.95 55.58-36.29 18.15-20.42 17.01-24.96-12.48-72.6-79.39-123.63-75.99-212.1 9.07-309.64 34.03-37.43 157.66-97.55 203.03-97.55 26.09 0 35.16-21.55 35.16-82.8 0-26.08 12.48-72.59 27.23-104.34 46.5-99.82 112.29-141.79 218.9-141.79 58.98 0 97.55 14.75 150.86 56.72 53.31 41.96 71.45 41.96 102.08 3.4 47.64-61.25 207.56-128.17 249.53-105.48 45.37 23.82 90.74 102.08 90.74 153.12 0 78.26 21.55 83.93 97.54 29.49 74.86-53.31 111.16-57.85 173.54-21.55 70.32 40.83 95.27 97.54 98.68 224.58 1.13 58.98 3.4 112.28 3.4 117.96 1.14 4.53 9.08 5.67 20.42 2.26 32.89-12.47 156.52 36.3 206.43 82.8 57.84 53.31 58.98 76 6.8 176.94-43.1 81.67-43.1 112.29-2.26 123.64 35.16 7.93 104.34 69.18 132.7 114.55 31.76 52.18 30.62 136.11-4.54 206.43-34.02 65.79-73.72 105.49-145.18 139.51-34.03 17.02-54.44 34.03-54.44 46.51 0 11.34 4.54 21.55 9.07 23.82 18.15 6.8 58.98 86.2 58.98 114.56 0 15.87 5.67 43.1 11.34 58.98 14.75 38.56-4.53 108.88-38.56 140.64-24.95 22.69-102.08 55.58-157.66 65.79-34.02 6.8-75.99-7.94-204.16-71.46-43.1-21.55-82.8-36.3-88.47-32.89-4.54 3.4-6.81 38.56-2.27 77.12 4.54 49.91 1.14 90.74-12.48 134.98-20.41 72.59-91.87 170.13-144.04 197.36-32.9 15.87-39.7 15.87-94.14-1.14-31.76-10.21-66.92-27.22-79.4-37.43-36.3-32.89-74.86-102.08-74.86-136.11 0-44.23-24.95-74.86-52.18-65.78-11.34 4.53-34.02 24.95-49.9 46.5s-48.77 49.91-74.86 62.38c-40.83 20.42-53.31 21.55-113.42 10.21-87.34-15.88-123.64-38.56-159.93-99.81-26.09-44.24-28.36-57.85-22.69-127.03 3.41-44.24 2.27-80.54-4.53-83.94-5.67-4.53-27.22-2.27-47.64 4.54-19.28 6.8-58.98 19.28-87.34 28.36-28.35 9.07-52.17 23.81-54.44 32.89-2.27 10.2 20.42 51.04 51.04 89.6 70.32 93.01 72.59 97.55 131.57 218.91 61.25 125.9 73.73 171.27 89.6 328.93 23.82 238.19-17.01 438.95-133.83 648.78-41.97 74.86-47.64 105.48-21.55 105.48 21.55 0 58.98-40.83 87.33-96.41 12.48-24.95 49.91-73.72 83.93-107.75 60.12-62.38 60.12-62.38 57.85-192.82-2.27-113.42 1.14-139.51 23.82-198.49 41.97-105.48 69.19-153.12 128.17-221.18 60.11-69.18 89.6-129.3 89.6-179.2 0-17.02 6.81-40.84 14.75-52.18 47.64-65.78 233.65 110.02 234.78 222.31 0 49.91 11.35 64.65 54.45 72.59 23.82 3.4 75.99 19.28 116.82 32.89 76 27.23 76 27.23 125.9-4.53 70.33-45.37 99.82-86.2 99.82-140.65 0-107.75 61.24-238.19 153.12-323.25 81.66-77.13 175.8-125.91 264.27-138.38 36.3-5.67 86.21-17.01 112.29-27.22 57.85-21.55 100.95-10.21 116.83 32.89 6.8 18.15 6.8 79.4 0 170.13-5.67 77.13-7.94 148.59-4.54 157.66 3.41 10.21 29.49 20.42 58.98 24.96 70.33 10.21 108.89 48.77 100.95 99.81-5.67 35.16-68.05 145.18-102.08 178.07-52.18 53.31-54.44 69.19-29.49 164.47 31.76 124.76 15.88 247.26-39.7 302.84-21.55 21.55-34.03 15.88-165.6-65.79-34.02-21.55-71.45-39.69-82.8-39.69-11.34 0-57.84-18.15-102.08-40.84-103.21-51.04-200.76-145.18-242.72-233.65-31.76-66.92-54.45-83.93-94.15-71.46-28.35 9.08-68.05 73.73-68.05 112.29 0 30.63-63.52 158.8-103.21 209.84-27.23 34.02-27.23 58.98-1.14 93 23.82 31.76 43.1 95.28 54.44 175.81 5.67 47.64 2.27 65.79-21.55 114.56-24.95 47.64-47.63 71.45-71.45 71.45-2.27 0-11.34-14.74-21.55-32.89-32.9-64.65-43.1-69.19-164.47-69.19-61.25 0-123.63-4.53-138.37-10.21-15.88-5.67-52.18-34.02-83.94-63.51-30.62-28.36-77.12-66.92-104.35-86.2-45.37-30.63-49.9-31.76-75.99-14.75-37.43 24.95-43.1 46.5-17.01 72.59 27.22 27.22 45.37 70.32 102.08 239.33 34.02 100.94 45.37 156.52 52.17 246.12 4.54 63.52 11.34 115.7 14.75 115.7 3.4 0 35.16-26.09 69.18-56.72 63.52-57.84 130.44-94.14 260.88-144.04 69.19-26.09 83.93-27.23 243.86-22.69 164.46 5.67 251.8 20.42 340.27 58.98 19.28 7.94 54.44 18.15 79.4 22.69 54.44 9.07 96.41 34.02 96.41 57.84 0 48.78-209.84 338.01-338.01 466.17-113.42 113.43-162.19 138.38-326.65 166.74-169.01 29.49-359.56 20.41-472.98-23.82-26.09-10.21-77.13-20.42-113.43-22.69-57.84-4.53-65.78-3.4-62.38 13.61 2.27 11.35 26.09 27.22 56.71 37.43 29.49 11.34 63.52 27.22 73.73 36.3 11.34 10.21 44.24 31.76 73.73 48.77 28.35 15.88 72.59 54.44 98.67 82.8 60.12 68.05 133.84 197.36 144.05 251.8 4.54 22.68 22.69 78.26 40.83 121.36 18.15 44.24 40.84 98.68 51.04 122.5 17.02 41.97 17.02 45.37-4.53 66.92-46.51 45.37-151.99 53.31-362.96 24.95-345.94-46.5-544.43-169-670.33-415.13-46.5-90.74-63.52-96.41-142.91-43.1-93.01 63.52-226.85 243.86-276.76 374.3-113.42 300.57-146.31 544.43-93.01 697.55 12.48 36.3 22.69 79.4 22.69 96.41 0 15.88 7.94 52.18 15.88 80.53 23.82 70.33 65.79 378.84 61.25 446.89-3.41 52.18-5.67 56.71-34.03 60.12-15.88 2.27-32.89-1.14-36.29-6.81zm-121.37-1104.74c7.94-39.7 28.36-104.35 46.51-145.18 18.14-40.84 39.69-102.09 49.9-137.25s27.22-80.53 38.57-102.08c75.99-148.58 239.32-338 325.52-379.97 41.97-19.28 45.37-26.08 48.77-71.45 2.27-30.63-6.8-81.67-21.55-128.17-21.55-66.92-23.82-94.14-18.14-209.84 5.67-121.36 10.2-146.31 52.17-258.6 26.09-68.05 54.44-138.38 64.65-156.53 14.75-27.22 14.75-31.75 0-37.42-23.82-9.08-46.5 5.67-176.94 120.22-65.79 57.85-133.84 113.43-151.99 124.77-44.23 28.36-188.28 156.52-284.69 254.07-136.11 138.38-276.75 343.67-300.57 441.22-5.67 20.41-18.15 58.97-28.36 87.33-38.56 103.22-20.41 150.85 133.84 350.48 34.03 43.1 81.67 119.09 104.35 167.87 45.37 94.14 81.67 150.85 95.28 150.85 4.54 0 14.74-31.76 22.68-70.32zm1465.43-282.43c13.61-24.95-52.17-110.02-170.13-222.31-134.98-127.03-275.62-188.28-488.86-213.23-34.02-3.41-75.99-9.08-93-12.48-57.85-11.34-46.51 48.77 36.29 181.48 27.22 44.23 133.84 133.84 221.18 184.88 61.25 36.29 164.46 65.78 306.24 88.47 122.5 18.15 174.67 17.01 188.28-6.81zm-2918.38-127.03c7.94-9.08 9.07-39.7 3.4-88.47-12.48-99.81 0-169 49.91-275.62 37.43-78.26 41.96-97.54 41.96-173.54-2.26-112.29-7.94-128.17-47.63-128.17-18.15 0-35.16 4.54-39.7 10.21-3.41 5.67-24.96 17.01-47.64 24.95-23.82 7.94-80.53 36.3-127.03 63.52-45.37 27.22-110.03 60.12-141.78 73.73-107.76 45.37-108.89 51.04-22.69 150.85 35.16 41.97 61.25 82.8 58.98 94.14-2.27 10.21-29.49 36.3-60.11 55.58-60.12 39.7-81.67 70.32-70.32 98.68 11.34 27.22 37.43 21.55 106.61-22.69 79.4-51.04 107.76-46.5 141.78 22.69 17.02 36.29 38.57 58.98 76 79.39 61.24 34.03 62.38 34.03 78.26 14.75zm2890.03-140.65c-3.41-9.07-6.81-26.08-6.81-36.29 0-21.55-14.74-40.84-98.68-129.3-91.87-97.55-199.62-148.59-343.67-162.2-66.92-6.81-81.66-4.54-133.84 22.68-66.92 34.03-68.05 52.18-3.4 52.18 55.58 0 209.83 39.7 242.72 62.38 13.62 9.08 30.63 17.02 37.43 17.02 29.49 0 172.41 93 224.58 146.31 32.9 32.9 61.25 53.31 71.46 49.91 9.07-3.41 13.61-13.61 10.21-22.69zm-1883.97-79.39c11.35-62.39 66.92-186.02 123.64-271.08 111.15-166.74 381.1-452.56 500.19-528.56 24.96-15.88 63.52-46.5 85.07-68.05 21.55-20.42 90.74-79.4 153.12-130.44 259.74-210.97 276.76-229.11 365.23-383.37 165.59-289.23 214.37-449.16 205.29-666.93-10.21-233.65-131.57-496.79-306.24-666.93-66.92-64.65-105.48-57.85-69.19 13.61 30.63 58.98 35.16 365.22 9.07 465.04-11.34 39.7-23.81 93-28.35 117.96-10.21 52.17-74.86 203.03-154.26 356.15-46.5 89.6-77.12 130.43-189.41 246.13-73.73 75.99-176.94 175.8-230.25 222.31-53.31 45.37-111.16 105.48-127.04 133.83-37.43 65.79-117.96 192.83-172.4 272.22-37.43 55.58-81.67 133.84-165.6 294.9-14.74 28.36-31.76 72.59-38.56 98.68-6.81 26.09-17.02 51.04-22.69 54.44-13.61 9.08-14.74 51.05-1.13 51.05 5.67 0 32.89-34.03 61.25-76 93-137.24 201.89-267.68 335.73-400.38 72.59-71.46 144.05-148.59 159.93-171.27 15.88-22.69 77.12-94.14 137.24-158.8 384.5-416.26 419.66-461.63 469.57-609.08 28.36-83.93 49.91-98.68 80.53-54.44 17.02 28.35 17.02 34.02-7.94 110.02-14.74 44.23-34.02 91.87-44.23 105.48-9.08 14.75-31.76 48.77-49.91 76-18.15 27.22-65.78 88.47-106.62 134.97-66.92 78.26-117.96 134.97-345.94 385.64-43.1 46.5-130.44 138.37-192.82 205.29-170.13 175.81-260.87 281.29-297.17 344.81-18.15 31.76-52.17 82.8-74.86 113.43-65.78 90.73-125.9 252.93-125.9 342.54 0 35.16 24.96 82.79 43.1 82.79 7.94 0 18.15-19.28 21.55-41.96zm-1443.88-43.1c10.21-22.69 9.08-31.76-4.53-47.64-10.21-11.34-29.49-43.1-44.24-71.46-24.95-48.77-27.22-61.25-23.82-243.86 2.27-187.15 1.14-192.82-26.08-233.65-18.15-28.36-44.24-48.77-80.54-62.38-53.3-20.42-53.3-20.42-122.49 15.88-38.57 20.41-106.62 71.45-153.12 113.42-79.4 72.59-82.8 78.26-64.66 96.41 11.35 10.21 36.3 19.28 57.85 19.28 52.17 0 73.73 10.21 73.73 35.16 0 28.36-43.1 55.58-90.74 55.58-22.69 0-51.04 6.81-63.52 15.88s-35.16 18.15-49.91 20.41c-51.04 6.81-34.02 36.3 24.96 43.11 29.49 3.4 57.84 10.2 62.38 15.88 4.54 4.53 10.21 49.9 12.48 100.94 2.26 51.04 9.07 97.55 13.61 103.22 5.67 4.53 41.96-14.75 82.8-43.1 39.69-28.36 83.93-52.18 96.41-52.18 11.34 0 44.23 23.82 71.45 52.18 60.12 61.24 80.53 74.86 140.65 85.06 72.59 12.48 73.72 11.35 87.33-18.14zm-1412.12-144.05c14.75-24.96 60.12-138.38 60.12-153.12 0-7.94 12.47-22.69 27.22-31.76 21.55-13.61 39.7-15.88 88.47-7.94 34.02 5.67 66.92 7.94 74.86 4.54 24.95-7.94 13.61-44.24-41.97-128.17-30.62-46.51-57.85-102.08-62.38-123.64-3.41-22.68-30.63-77.12-58.98-121.36-45.37-69.19-61.25-85.06-110.02-104.35-70.33-29.49-105.49-29.49-170.14-2.27-114.56 49.91-178.07 163.33-178.07 322.13 0 58.98-6.81 112.29-19.28 146.31-15.88 44.24-15.88 55.58-4.54 70.33 21.55 24.95 56.71 22.68 108.89-10.21 62.38-38.57 97.54-52.18 116.82-48.77 15.88 3.4 70.32 90.73 70.32 113.42 0 18.15 58.98 88.47 74.86 88.47 7.94 0 18.15-6.81 23.82-13.61zm543.3-80.53c21.55-44.24 38.56-89.61 38.56-99.81 0-34.03 27.23-44.24 97.55-37.43 89.6 9.07 106.62-6.81 72.59-71.46-12.48-24.95-28.36-74.86-35.16-112.29-20.42-106.62-65.79-215.5-110.02-259.74-31.76-31.76-48.77-39.7-83.94-39.7-78.26 0-174.67 73.73-222.31 170.14-7.94 15.88-21.55 40.83-30.62 56.71-10.21 15.88-14.75 39.7-11.34 54.44 11.34 46.5 66.92 113.43 115.69 137.24 38.56 18.15 48.77 30.63 55.58 63.52 4.53 27.22 2.26 47.64-9.08 64.65-14.74 22.69-14.74 30.63 0 65.79 23.82 56.71 58.98 103.21 72.59 95.27 5.67-4.53 28.36-43.1 49.91-87.33zm3571.7-61.25c145.19-81.67 323.26-274.49 385.64-417.4 29.49-66.92 36.3-248.4 12.48-305.11-10.21-23.82-18.15-52.17-18.15-63.51 0-11.35-6.8-24.96-14.74-31.76-12.48-10.21-24.95 7.94-61.25 86.2-26.09 54.44-71.46 127.03-102.08 161.06-48.77 55.58-70.32 83.93-111.16 148.58-37.43 60.12-106.61 198.5-137.24 276.76-19.28 49.9-44.23 107.75-56.71 128.16-19.28 31.76-19.28 38.57-4.54 47.64 23.82 15.88 22.69 15.88 107.75-30.62zm-1548.23 20.42c0-6.81-4.53-14.75-11.34-18.15-5.67-3.41-23.82-47.64-39.7-97.55-15.88-49.9-36.29-105.48-45.37-123.63-9.07-18.15-17.01-40.83-17.01-51.04 0-36.29-47.64-128.17-71.46-138.37-19.28-9.08-41.96-2.27-110.02 35.16-68.05 36.29-100.94 46.5-163.33 51.04-43.1 4.53-80.53 12.47-82.8 19.28-2.26 6.8 38.57 34.03 89.61 58.98 52.17 26.09 112.29 64.65 134.97 85.07 43.1 37.43 108.89 79.39 214.37 134.97 34.03 18.15 66.92 38.56 73.73 44.24 13.61 13.61 28.35 13.61 28.35 0zm-1048.03-51.04c78.26-31.76 105.49-45.37 174.67-91.88 54.45-37.43 121.37-68.05 173.54-78.26 41.97-9.07 39.7-44.24-3.4-74.86-41.97-29.49-243.86-124.77-265.41-124.77-7.94 0-21.55-7.93-29.49-17.01-15.88-19.28-74.86-22.68-85.07-5.67-4.54 6.8-11.34 9.07-17.01 5.67-11.34-6.8-79.4 23.82-79.4 36.3 0 4.53 6.81 15.87 14.75 24.95 26.08 30.62 47.63 208.7 32.89 260.87-18.15 57.85-17.01 91.88 1.13 91.88 7.94 0 45.37-12.48 82.8-27.22zm2428.4-60.12c47.64-74.86 60.11-100.95 60.11-124.77 0-11.34 6.81-31.75 14.75-45.36 35.16-63.52 63.51-115.7 89.6-162.2 40.83-75.99 65.79-113.42 111.16-166.73 55.57-63.52 159.92-275.62 166.73-336.87 5.67-41.97 2.27-52.18-15.88-62.38-18.15-9.08-34.03-4.54-81.66 28.35-210.97 138.38-358.42 362.96-420.81 638.58-18.14 81.66-22.68 123.63-15.88 181.47 12.48 119.1 38.57 133.84 91.88 49.91zm1171.66 10.21c141.78-69.19 285.83-204.16 403.79-378.84 64.65-94.14 58.98-113.42-27.22-89.6-29.49 9.07-79.4 19.28-111.16 23.82-32.89 5.67-75.99 17.01-96.41 26.09-21.55 9.07-58.98 20.41-83.93 23.82-70.32 10.2-255.2 111.15-432.14 235.92-218.91 154.25-195.09 191.68 120.23 187.14 155.38-2.26 181.47-5.67 226.84-28.35zm-2460.15-191.69c3.4-100.94 12.47-197.35 19.28-215.5 6.81-17.01 24.95-82.8 40.83-146.32 15.88-62.38 44.24-151.98 63.52-198.49 18.15-46.5 34.03-88.47 34.03-93.01 0-5.67 6.8-26.08 15.87-45.37 9.08-20.41 27.23-77.12 40.84-127.03s31.76-119.09 41.96-153.12c28.36-94.14 31.76-227.98 10.21-344.81-18.14-94.14-18.14-100.95 0-121.36 10.21-12.48 23.82-21.55 29.49-21.55 15.88 0 54.45 99.81 72.59 191.68 15.88 77.13 15.88 96.41 0 188.29-10.21 56.71-24.95 130.43-35.16 164.46-9.07 34.03-17.01 72.59-17.01 85.07 0 23.82-58.98 195.09-122.5 357.28-63.52 158.79-123.63 404.92-104.35 424.21 15.88 15.88 41.97-18.15 105.49-138.38 24.95-47.64 70.32-123.63 99.81-167.87 30.62-43.1 66.92-105.48 81.66-137.24 14.75-32.89 39.7-75.99 56.71-97.54 15.88-21.55 51.05-95.28 78.27-162.2 48.77-123.63 48.77-123.63 48.77-310.78 0-140.64-5.67-208.7-20.42-272.22-11.34-46.5-28.35-117.96-38.56-158.79-9.07-40.83-21.55-91.87-26.09-113.42-14.74-65.79-52.17-154.26-98.68-233.66-23.82-40.83-65.78-116.82-94.14-169-64.65-117.96-95.27-158.79-111.15-148.58-18.15 11.34-17.02 62.38 2.26 119.09 31.76 88.47 13.62 317.59-46.5 585.27-14.74 69.19-32.89 150.85-39.7 181.48-13.61 61.24-46.5 159.92-91.87 277.88-15.88 40.84-39.7 112.29-53.31 158.8-13.61 46.5-29.49 100.94-35.16 119.09-24.95 72.59-48.77 243.86-52.17 374.3-4.54 139.51 15.87 292.63 49.9 359.55 7.94 17.01 14.75 43.1 14.75 58.98 0 37.43 44.23 122.5 61.25 116.83 7.93-2.27 14.74-66.92 19.28-186.02zm1998.52 7.94c74.86-63.51 203.03-141.78 338-206.43 106.62-52.17 353.88-133.84 404.92-133.84 23.82 0 36.3-5.67 36.3-15.88 0-21.55-76-36.29-259.74-52.17-151.99-12.48-138.38-15.88-283.56 54.44-79.4 38.56-174.67 141.78-225.71 243.86-26.09 53.31-47.64 102.08-47.64 108.89 0 15.88 19.28 15.88 37.43 1.13zm-3771.33-30.62c22.68-17.01 62.38-49.91 87.34-71.46 26.08-22.68 80.53-57.84 123.63-78.26 71.45-32.89 82.8-35.16 157.66-28.36 63.51 4.54 86.2 2.27 104.35-10.21 27.22-21.54 19.28-29.49-51.05-58.97-28.35-12.48-63.51-30.63-78.26-41.97-14.74-11.34-34.02-20.42-41.96-20.42-9.08 0-15.88-4.53-15.88-11.34 0-5.67-19.29-15.88-41.97-22.68-23.82-6.81-53.31-19.29-64.65-28.36-13.61-10.21-46.51-17.01-81.67-17.01-32.89 0-72.59-5.68-88.47-12.48-37.43-17.01-142.91 23.82-182.61 71.46-29.49 34.02-29.49 34.02-6.8 70.32 52.17 80.53 71.45 125.9 80.53 184.88 9.07 53.31 35.16 105.48 53.3 105.48 2.27 0 23.82-13.61 46.51-30.62zm1266.94-116.83c3.4-5.67 32.89-23.82 65.78-39.7 81.67-40.83 85.07-46.5 47.64-75.99-87.33-69.19-156.52-90.74-254.07-81.66-55.57 6.8-83.93 17.01-130.43 47.63-31.76 21.55-61.25 45.37-65.79 52.18-12.48 18.15 10.21 37.43 68.06 60.11 29.49 10.21 65.78 26.09 81.66 34.03 32.89 17.01 176.94 20.42 187.15 3.4zm-1914.59-52.17c82.8-120.23 158.79-169 282.43-180.35 68.05-6.8 86.2-13.61 124.76-46.5 23.82-21.55 47.64-38.56 52.18-38.56 19.28 0 7.94-32.9-14.75-39.7-39.7-12.48-362.95 6.8-412.86 24.95-24.95 9.08-55.58 19.28-68.05 22.69-49.91 15.88-141.78 83.93-141.78 105.48 0 20.42 132.7 180.34 149.71 181.48 4.54 0 17.02-13.61 28.36-29.49zm1469.97-80.53c66.92-61.25 79.39-69.19 166.73-112.29 51.04-23.82 82.8-30.63 170.14-34.03 117.96-4.54 123.63-9.07 70.32-65.78-32.89-35.17-235.92-199.63-246.13-199.63-3.4 0-20.42-10.21-37.43-22.69-17.01-11.34-45.37-22.68-64.65-24.95-31.76-3.4-35.16 1.14-51.04 47.64-20.42 60.11-47.64 98.68-99.81 134.97-31.76 21.55-46.51 24.96-88.47 19.29-55.58-6.81-45.37-14.75-140.65 96.41-53.31 62.38-48.77 74.85 45.37 112.28 34.03 12.48 95.28 40.84 136.11 62.39s74.86 38.56 77.13 38.56c2.26 1.14 30.62-22.68 62.38-52.17zm-386.77-226.85c23.81-28.36 32.89-55.58 43.1-138.38 5.67-39.7 14.74-77.12 20.41-82.8 19.28-19.28 70.33 0 70.33 23.82s49.9 69.19 75.99 69.19c34.03 0 81.66-38.56 85.07-66.92 2.26-15.88-10.21-57.84-27.23-93.01-38.56-78.26-38.56-87.33-4.53-102.08 22.68-10.2 37.43-9.07 77.13 11.35 28.35 12.47 60.11 23.81 72.59 23.81 37.43 0 82.8-57.84 90.74-113.42 5.67-46.5 2.26-56.71-39.7-111.15-60.12-80.53-44.24-115.7 46.5-98.68 32.89 6.8 43.1 2.27 80.53-34.03 64.65-63.52 53.31-121.36-34.03-166.73-61.24-31.76-89.6-72.59-69.18-97.55 7.94-7.94 37.43-27.22 66.92-43.1 89.6-45.37 145.18-167.86 89.6-197.35-17.01-9.08-41.97-7.94-90.74 2.27-61.25 12.47-70.32 11.34-87.34-5.68-17.01-15.88-17.01-22.68-5.67-39.69 7.94-10.21 23.82-41.97 37.43-70.33 20.42-44.23 21.55-56.71 9.08-98.68-19.28-70.32-44.24-72.59-123.63-10.2-36.3 28.35-73.73 52.17-82.8 52.17-30.63 0-44.24-29.49-36.3-83.93 11.34-71.46 0-105.49-40.83-125.9-31.76-17.02-36.3-17.02-73.73 5.67-27.22 17.01-48.77 46.5-71.45 95.27-18.15 37.43-44.24 79.4-56.72 90.74-21.54 19.28-29.48 20.42-69.18 7.94-38.57-11.34-46.51-19.28-56.71-57.84-15.88-58.98-74.86-127.04-106.62-122.5-37.43 5.67-54.45 51.04-46.51 133.84 9.08 108.89 7.94 115.69-9.07 133.84-14.74 13.61-23.82 12.47-68.05-13.61-28.36-17.01-57.85-37.43-64.66-46.51-19.28-22.68-83.93-32.89-112.28-18.14-34.03 19.28-30.63 73.72 11.34 169 51.04 115.69 39.7 129.3-81.67 98.68-40.83-10.21-112.29 32.89-112.29 68.05 0 14.74 6.81 31.76 15.88 36.3 9.08 4.53 36.3 28.35 62.39 52.17 31.75 29.49 43.1 47.64 38.56 62.38-11.34 28.36-26.09 36.3-78.26 36.3-48.77 0-98.68 29.49-141.78 82.8-35.16 45.37-20.42 66.92 63.52 96.41 83.93 30.62 93 52.17 40.83 95.27-40.83 35.16-82.8 127.04-73.73 163.33 10.21 38.57 49.91 45.37 96.41 17.02 45.37-27.23 65.79-29.49 95.28-7.94 20.41 14.74 18.15 19.28-34.03 108.88-46.5 79.4-53.31 97.55-44.23 122.5 27.22 77.13 105.48 63.52 158.79-27.22 27.22-45.37 34.03-51.04 65.78-47.64 34.03 3.4 35.17 5.67 34.03 54.44 0 28.36-4.54 66.93-9.07 87.34-9.08 34.03-6.81 37.43 31.76 56.71 52.17 23.82 72.59 14.75 103.21-51.04 29.49-63.52 66.92-74.86 104.35-31.76 14.75 17.02 26.09 44.24 26.09 61.25 1.13 30.63 38.56 83.94 69.19 96.41 29.49 11.34 52.17 7.94 69.19-11.34zm953.89-179.21c51.04-80.53 64.65-124.76 64.65-214.37 0-64.65-5.67-97.54-24.96-137.24-13.61-28.36-30.62-49.91-37.42-47.64-5.68 2.27-31.76 39.7-55.58 82.8-45.37 78.26-45.37 78.26-44.24 224.58 1.14 150.85 9.08 176.94 47.64 151.99 10.21-6.81 31.76-32.9 49.91-60.12zm-2984.18-15.88c-18.14-11.34-13.6-254.07 6.81-398.11 12.48-87.34 48.77-206.44 71.46-233.66 21.55-26.09 3.4-45.37-56.71-58.98-116.83-27.22-179.21-68.05-232.52-154.25-18.15-28.36-20.42-51.04-14.75-170.14 3.41-79.39 13.61-163.33 24.96-199.62 20.41-64.65 85.06-156.53 117.96-165.6 10.2-3.41 46.5-17.02 80.53-30.63 81.66-31.75 207.56-29.49 273.35 3.41 39.7 20.41 45.37 21.55 51.04 5.67 4.53-10.21-1.14-39.7-11.34-65.79-12.48-34.03-18.15-85.07-18.15-167.87 0-145.18 20.41-214.37 100.94-339.13 29.5-46.5 65.79-103.22 79.4-127.04 28.36-47.63 51.04-58.97 82.8-41.96 17.01 9.07 21.55 19.28 15.88 41.96-20.42 98.68-20.42 97.55 14.75 150.86 44.23 66.92 124.76 157.66 138.37 157.66 20.42 0 130.44 88.47 183.75 147.45 66.92 74.86 98.68 145.18 106.61 234.78 5.68 62.39 2.27 77.13-29.48 138.38-35.17 69.19-35.17 69.19 11.34 111.16 123.63 112.28 169 190.55 169 290.36 0 75.99-62.38 158.79-166.73 223.44-45.37 27.23-65.79 47.64-82.8 87.34-12.48 28.36-22.69 60.11-22.69 70.32 0 20.42-104.35 164.47-169 231.39-22.68 23.82-72.59 58.98-110.02 77.12-64.65 31.76-79.4 35.16-198.49 35.16-149.72 1.14-201.89 19.29-302.84 105.49-58.98 51.04-85.07 60.11-113.43 40.83zm4035.61-125.9c0-5.67 31.76-36.29 71.46-69.19 163.33-133.84 298.3-339.13 376.56-571.65 9.08-24.95 26.09-76 39.7-113.42 36.3-100.95 46.51-407.2 15.88-494.53-11.34-34.03-27.22-69.19-34.03-78.26-22.68-27.22-53.31-115.7-54.44-158.8-1.13-32.89 4.54-41.96 32.89-55.57 30.63-14.75 36.3-13.61 76 9.07 23.82 13.61 47.64 22.68 53.31 19.28 4.53-3.4 12.47-38.56 14.74-78.26 4.54-49.91 13.61-83.93 30.63-106.62 27.22-36.29 22.68-66.92-11.35-77.13-11.34-4.53-41.96-24.95-68.05-46.5-45.37-37.43-48.77-38.56-68.05-20.42-12.48 11.35-21.55 24.96-21.55 31.76 0 7.94-24.96 38.57-55.58 68.06-48.77 48.77-63.52 55.58-113.43 61.25-79.39 6.8-119.09-12.48-159.92-78.27-18.15-30.62-39.7-56.71-47.64-56.71-44.24-4.53-131.57 5.67-156.52 18.15-15.88 7.94-56.72 28.36-90.74 45.37-73.73 36.3-113.43 77.13-155.39 163.33-15.88 35.16-44.24 82.8-62.39 107.75-35.16 48.77-35.16 49.91 30.63 141.78 19.28 28.36 49.9 80.53 66.92 114.56 18.15 34.03 38.56 70.32 46.5 79.39 22.69 27.23 96.41 169 96.41 186.02 0 9.07 6.81 30.62 15.88 48.77 31.76 63.52 81.66 254.07 97.54 372.03 6.81 43.1 17.02 96.41 23.82 115.69 19.29 57.85 15.88 271.08-4.53 341.41-18.15 57.84-15.88 93 4.53 93 5.67 0 10.21-4.53 10.21-11.34zm1731.98-35.16c15.88-15.88-10.21-88.47-54.45-154.26-41.96-61.25-38.56-81.66 24.96-157.65 52.17-62.39 100.94-151.99 100.94-183.75 0-38.56-31.76-51.04-145.18-57.85-102.08-6.8-110.02-9.07-123.63-35.16-7.94-15.88-14.74-57.84-14.74-95.27 0-47.64-6.81-77.13-23.82-104.35-36.3-58.98-65.79-48.77-86.21 29.49-6.8 27.22-24.95 48.77-60.11 73.72-38.56 27.22-61.25 56.71-96.41 125.9-40.83 81.67-45.37 98.68-48.77 193.96-3.4 93-1.14 110.02 21.55 147.45 27.22 46.5 68.05 88.47 147.45 151.98 68.05 54.45 79.4 58.99 197.36 66.92 56.71 4.54 112.29 7.94 125.9 9.08 12.47 1.13 28.35-3.4 35.16-10.21zm-5540.74-51.04c23.82-7.94 104.35-18.15 179.21-21.55 189.42-7.94 216.64-22.69 332.33-189.42 61.25-87.33 104.35-178.07 89.61-192.82-20.42-20.41-145.19-34.02-191.69-21.55-62.38 17.02-145.18 91.87-167.87 154.26-21.55 55.57-34.02 63.52-70.32 49.9-21.55-7.94-26.09-18.14-26.09-54.44s10.21-55.58 53.31-107.75c30.63-35.16 73.73-78.26 98.68-94.14 43.1-30.63 46.5-30.63 238.19-31.76 204.16-1.14 218.91-4.54 267.68-56.71 24.95-26.09 28.36-39.7 27.22-102.08-3.4-121.37-51.04-174.68-251.8-277.89-183.74-94.14-217.77-132.71-217.77-250.67 0-106.62 41.96-192.82 86.2-175.8 13.61 5.67 17.01 17.01 12.48 49.9-27.22 187.15-18.15 214.37 86.2 265.41 79.39 39.7 96.41 32.9 131.57-48.77 23.82-54.44 24.95-60.11 7.94-110.02-9.07-29.49-20.42-66.92-23.82-83.93-6.8-37.43-73.72-107.76-192.82-204.16-49.9-40.84-120.23-103.22-156.52-140.65-65.79-66.92-65.79-66.92-87.34-38.56-19.28 26.08-34.03 58.98-70.32 167.86-10.21 28.36-10.21 49.91 0 88.47 7.94 27.22 13.61 66.92 13.61 87.34 1.13 88.47 32.89 171.27 117.96 317.58 37.43 63.52 28.36 87.34-37.43 87.34-47.64 0-113.42 31.76-130.44 63.52-6.8 11.34-21.55 34.02-31.76 48.77-30.62 40.83-24.95 63.52 37.43 169 55.58 90.74 57.85 97.55 37.43 112.29-11.34 7.94-30.62 14.75-41.96 14.75-34.03 0-89.61 38.56-132.71 93-55.58 69.19-66.92 90.74-103.21 218.91-34.03 120.23-41.97 207.56-19.29 230.25 15.88 15.88 70.33 9.07 136.11-15.88zm1572.05-48.77c-112.29-31.76-187.15-134.98-176.94-242.73 12.48-116.82 51.04-223.44 121.36-328.93 61.25-94.14 98.68-125.9 191.69-169 106.62-46.5 165.6-44.23 237.05 11.34 29.49 23.82 68.06 62.39 86.21 85.07 27.22 35.16 30.62 51.04 30.62 121.37 0 74.85-4.54 90.73-58.98 201.89-73.72 151.99-107.75 195.09-207.56 260.87-108.89 72.59-142.92 81.67-223.45 60.12zm155.39-114.56c22.69-13.61 68.06-58.98 100.95-100.95 107.75-132.7 157.66-301.7 114.56-382.23-11.35-21.55-27.23-38.57-35.17-38.57-7.93 0-21.55-6.8-29.49-14.74-40.83-40.84-58.98-41.97-133.83-4.54-74.86 37.43-133.85 87.34-161.07 136.11-73.72 134.97-79.39 149.72-85.06 229.11-3.41 45.37-3.41 95.28 1.13 111.16 9.07 36.29 49.91 82.8 80.53 90.74 39.7 11.34 105.49 0 147.45-26.09zm4680.99-132.71c-2.27-56.71-10.21-99.81-24.96-129.3-36.29-69.19-30.62-93.01 34.03-147.45 56.71-47.64 102.08-111.15 102.08-140.64 0-9.08-13.61-20.42-30.62-23.82-38.57-9.08-146.32-79.4-154.26-99.82-3.4-7.94 3.4-36.29 15.88-62.38 21.55-48.77 45.37-189.42 36.3-213.23-22.69-58.99-234.79 17.01-352.75 125.9-56.71 52.17-83.93 100.94-116.83 205.29-36.29 116.83-7.94 271.08 64.65 356.15 62.39 72.59 199.63 158.79 252.94 159.93 10.21 0 48.77 17.01 86.2 37.43 40.83 22.68 72.59 34.03 79.4 28.35 6.8-5.67 10.2-48.77 7.94-96.41zm-6585.37-280.15c3.4-9.08-1.13-31.76-11.34-48.77-26.09-47.64-63.52-162.2-63.52-197.36 0-98.68 136.11-271.08 213.24-271.08 12.47 0 28.35-6.81 36.29-15.88 10.21-13.61 5.67-18.15-30.62-26.09-104.35-20.41-207.56 7.94-267.68 73.73-36.3 40.83-55.58 119.09-60.11 252.93-4.54 130.44-4.54 130.44 39.69 174.67 24.96 24.96 61.25 51.04 82.8 57.85 49.91 18.15 54.45 18.15 61.25 0zm183.75-55.58c7.94-9.07 6.8-21.55-3.41-41.97-37.42-66.92-14.74-180.34 54.45-273.35 31.76-44.23 19.28-66.92-37.43-66.92-36.3 0-54.44 7.94-91.87 41.97-24.96 22.69-55.58 61.25-68.06 86.2-20.41 39.7-21.55 49.91-9.07 103.22 18.15 80.53 37.43 113.42 80.53 141.78 43.1 27.22 58.98 29.49 74.86 9.07zm3221.22-235.92c22.69-131.57 7.94-284.69-38.56-391.31-41.97-98.68-56.71-127.03-114.56-212.1-63.52-91.88-69.19-111.16-44.23-131.57 22.68-19.29 80.53 13.61 174.67 103.21 81.66 77.13 116.83 91.87 124.76 52.18 2.27-10.21 28.36-60.12 58.99-110.02 81.66-137.25 138.37-313.05 163.32-507.01 12.48-105.48 12.48-120.23-6.8-170.13-11.34-30.63-38.56-76-58.98-99.81-36.3-44.24-36.3-44.24-123.63-41.97-151.99 4.53-212.11-48.77-212.11-184.88 0-121.36 55.58-176.94 179.21-176.94 51.04 0 76 6.8 105.49 26.09 54.44 35.16 90.74 113.42 85.07 176.94-6.81 79.39 44.23 164.46 65.78 107.75 11.34-29.49 6.81-151.99-9.07-242.73-17.02-94.14-32.9-142.91-64.65-206.43-11.35-22.68-21.55-46.5-21.55-53.31 0-20.41-56.72-96.41-94.15-127.03-64.65-52.18-73.72-51.04-142.91 15.88-102.08 98.67-125.9 107.75-263.14 105.48-108.89-1.13-123.63-3.4-190.55-38.56-40.83-20.42-79.4-35.16-87.34-31.76s-27.22 30.62-43.1 61.25c-29.49 56.71-163.33 186.01-226.85 217.77-37.43 19.28-165.59 163.33-165.59 186.01 0 28.36 28.35 38.57 142.91 52.18 99.81 12.48 124.76 12.48 204.16-5.67 178.07-38.57 213.24-43.1 260.88-29.49 57.84 15.88 116.82 73.72 151.98 149.72 29.49 61.24 28.36 69.19-27.22 204.16-4.54 10.21 4.54 35.16 20.42 58.98 45.37 66.92 60.11 198.49 36.29 316.45-10.21 46.5-88.47 145.18-116.82 145.18-55.58 0-105.49 66.92-105.49 141.78 0 13.61 44.24 81.67 97.55 153.12 102.08 137.25 123.63 174.68 170.13 294.9 14.75 40.84 35.16 88.48 44.24 105.49 9.07 17.01 20.41 64.65 23.81 105.48 10.21 96.41 28.36 88.47 47.64-19.28zm2273.01-131.57c54.44-62.38 79.39-210.97 49.9-299.44-9.07-27.22-19.28-75.99-23.81-107.75-4.54-31.76-17.02-73.73-29.49-94.14-20.42-32.89-24.96-35.16-64.66-28.36-74.85 12.48-87.33 28.36-110.02 130.44-19.28 93.01-19.28 110.02 4.54 267.68 14.75 96.41 55.58 150.85 114.56 150.85 26.09 0 48.77-7.94 58.98-19.28zm-407.19-162.2c66.92-71.45 121.36-174.67 121.36-227.98 0-18.15 7.94-52.17 18.15-77.13 9.07-24.95 15.88-55.57 13.61-69.18-4.54-30.63-114.56-94.14-146.32-85.07-48.77 15.88-180.34 223.44-210.96 334.6-19.29 71.45-18.15 103.21 7.94 141.78 24.95 37.43 46.5 48.77 97.54 49.9 29.49 1.14 46.5-10.2 98.68-66.92zm902.85-129.3c37.43-20.42 57.85-61.25 57.85-120.23 0-34.02-10.21-56.71-45.37-100.94-24.96-31.76-51.04-57.85-56.72-57.85-4.53 0-17.01-6.81-24.95-15.88-14.74-14.74-71.46-35.16-193.95-69.19-70.33-20.41-111.16-6.8-136.11 45.37-17.02 36.3-17.02 41.97 3.4 88.47 29.49 65.79 134.98 162.2 226.85 208.7 81.66 40.83 121.36 45.37 169 21.55zm-1281.68-113.42c103.21-53.31 296.03-267.68 296.03-328.93 0-10.21-13.61-24.95-29.49-31.76-24.95-11.34-35.16-10.21-65.79 6.81-55.57 32.89-163.33 63.51-221.17 63.51-45.37 0-58.98 6.81-98.68 44.24-103.21 97.54-124.77 170.13-71.46 238.19 23.82 29.49 35.17 34.02 81.67 34.02 36.29 1.14 72.59-7.93 108.89-26.08zm-2102.88-44.24c105.49-24.95 164.47-99.81 164.47-207.56 0-91.88 3.4-95.28 77.13-88.47 63.51 6.8 64.65 5.67 97.54-35.16 26.09-35.17 34.03-56.72 38.56-119.1 9.08-128.17-7.94-154.25-119.09-193.95-49.91-17.02-48.77-49.91 2.27-79.4 43.1-26.09 96.41-105.48 96.41-144.05 0-37.43-53.31-90.74-105.49-105.48-40.83-11.34-72.59-7.94-209.83 18.15-162.19 31.75-162.19 31.75-289.23 6.8-145.18-28.35-223.44-53.31-224.58-72.59-1.13-7.94 0-28.36 1.14-46.5 4.53-63.52-51.04-69.19-110.02-12.48-44.24 43.1-102.08 53.31-127.04 24.95-21.55-26.08-45.37-164.46-64.65-376.56-15.88-186.02-20.42-209.83-49.91-260.88-49.9-88.47-134.97-124.76-189.41-82.79-44.24 35.16-108.89 31.75-191.69-10.21-32.89-17.02-37.43-17.02-62.38 2.27-57.85 44.23-123.63 131.57-123.63 162.19 0 18.15-13.61 45.37-32.9 66.92-70.32 77.13-80.53 99.81-80.53 175.81 0 61.25 5.68 81.66 32.9 124.76 49.9 79.4 116.82 119.1 212.1 128.17 164.46 14.75 233.65 35.16 285.83 83.93 34.02 32.9 31.75 61.25-10.21 108.89-51.04 56.71-98.68 73.73-246.13 86.2-128.17 11.35-128.17 11.35-215.51 69.19-47.63 31.76-96.41 69.19-107.75 81.67-41.97 48.77-75.99 130.43-75.99 181.47 0 45.37 4.54 54.45 44.23 85.07 24.96 19.28 46.51 48.77 49.91 65.79 21.55 100.94 99.81 141.78 180.34 96.41 56.71-34.03 71.46-31.76 105.49 13.61 63.51 83.93 144.04 74.86 213.23-22.69 39.7-56.71 63.52-114.56 105.49-259.74 31.75-110.02 65.78-165.6 122.49-199.62 44.24-27.22 43.1-27.22 86.2 9.07 81.67 68.06 103.22 147.45 123.64 440.09 5.67 79.39 13.61 122.49 27.22 141.77 10.21 14.75 19.28 36.3 19.28 45.37 0 26.09 68.05 87.34 105.48 96.41 35.16 9.08 66.92-12.47 94.15-64.65 9.07-17.01 29.49-39.7 45.37-49.9 28.35-19.29 29.48-19.29 87.33 38.56 53.31 52.17 117.96 91.87 149.72 91.87 6.8 0 37.43-5.67 68.05-13.61zm2875.29-195.09c21.55-15.88 54.44-51.04 71.46-77.12 29.49-43.1 31.75-54.45 27.22-113.43-6.81-77.13-36.3-125.9-134.98-226.84-79.39-80.54-201.89-148.59-248.4-138.38-104.34 22.68-181.47 93.01-191.68 172.4-14.74 119.1 22.68 186.02 171.27 306.25 137.24 111.15 227.98 133.83 305.11 77.12zm-1346.34-73.72c43.1-34.03 58.98-91.87 36.3-134.98-21.55-41.96-26.09-43.1-95.28-6.8-57.84 28.36-69.19 44.23-69.19 96.41 0 65.79 70.33 90.74 128.17 45.37zm1953.15-14.75c54.45-30.62 106.62-104.35 107.76-149.71 0-70.33-117.96-170.14-170.14-141.78-11.34 5.67-29.49 11.34-40.83 11.34s-56.71 18.15-103.22 39.7c-46.5 21.55-87.33 39.69-93 39.69-4.54 0-31.76 12.48-58.98 27.23-46.51 24.95-49.91 29.49-47.64 70.32 2.27 23.82 10.21 49.9 18.15 57.84 7.93 7.94 65.78 24.96 127.03 38.57 62.38 13.61 115.69 26.09 117.96 28.35 14.75 13.62 103.22 1.14 142.91-21.55zm-1312.31-71.45c142.92-61.25 153.13-76 120.23-172.41-17.01-49.9-28.35-65.78-49.9-72.59-55.58-14.74-175.81-28.35-187.15-20.41-5.67 4.53-45.37 11.34-86.2 13.61-61.25 5.67-86.2 13.61-129.31 43.1-108.88 74.86-106.61 174.67 5.67 230.25 29.5 13.61 280.16-2.27 326.66-21.55zm-2490.77-1.14c-19.29-15.88-26.09-36.29-31.76-94.14-3.41-40.83-14.75-106.62-24.96-147.45-17.01-65.78-28.35-81.66-100.94-156.52-45.37-46.51-82.8-89.61-82.8-97.55 0-38.56 64.65-55.57 90.74-23.82 7.94 10.21 46.5 35.16 86.2 57.85 79.4 44.23 229.11 77.13 300.57 65.78 85.07-13.61 133.84 21.56 93.01 65.79-17.02 19.28-34.03 21.55-148.59 19.28-155.39-3.4-169 4.54-144.04 74.86 20.41 57.85 21.55 209.84 2.26 237.06-13.61 19.28-15.88 19.28-39.69-1.14zm-1000.4-179.21c-13.61-17.01-12.48-21.55 11.34-40.83 15.88-11.34 43.1-23.82 62.39-28.35 68.05-14.75 115.69-45.37 224.58-144.05 115.69-104.35 156.52-121.37 164.46-69.19 4.54 28.36-57.85 91.87-176.94 178.07-140.65 103.22-252.94 144.05-285.83 104.35zm4450.74-23.81c62.38-14.75 209.83-106.62 255.2-159.93 87.34-98.68 86.2-191.69-2.27-209.84-48.77-10.2-80.53 0-180.34 60.12-44.24 27.22-86.2 68.05-139.51 134.97-64.65 82.8-74.86 100.95-69.19 129.31 13.61 65.78 31.76 71.45 136.11 45.37zm-782.62-147.46c27.22-26.08 22.68-40.83-28.36-89.6-24.95-24.95-79.4-88.47-120.23-140.65-90.74-114.55-128.17-134.97-205.3-112.29-66.92 19.29-115.69 74.87-115.69 131.58 0 91.87 66.92 161.06 179.21 184.88 35.16 6.8 87.34 19.28 115.69 28.35 72.59 20.42 153.13 19.29 174.68-2.27zm597.74-46.5c21.55-23.82 64.65-73.72 95.27-111.16 31.76-37.42 65.79-78.26 77.13-90.73 24.95-26.09 61.25-95.28 80.53-150.86 23.82-66.92-21.55-195.08-68.05-195.08-9.08 0-35.16 7.94-58.98 17.01-74.86 30.62-144.05 139.51-189.42 301.7-7.94 28.36-27.22 78.27-44.24 111.16-15.88 32.89-29.49 66.92-29.49 74.86 0 14.75 72.6 85.07 88.47 85.07 5.68 0 27.23-19.28 48.78-41.97zm-436.68-88.47c3.4-13.61-2.27-49.91-12.48-80.53-12.48-37.43-18.15-90.74-17.01-173.54 2.27-210.97 3.4-200.76-41.97-251.8-73.73-81.66-127.04-88.47-197.36-24.95-35.16 31.76-78.26 114.56-78.26 149.72 0 45.37 48.77 141.78 124.77 244.99 116.82 158.79 203.02 212.1 222.31 136.11zm216.64-14.74c14.74-9.08 49.9-87.34 85.06-189.42 27.22-79.4 45.37-274.49 29.49-331.2-14.74-55.58-53.31-77.13-106.61-60.11-46.51 15.88-129.31 95.27-129.31 123.63 0 10.21-9.07 52.17-19.28 94.14-18.15 71.46-18.15 83.93 0 213.24 10.21 74.86 21.55 141.77 24.95 147.45 7.94 13.61 96.41 14.74 115.7 2.27zm-3456.02-22.69c-30.62-24.95-26.08-48.77 14.75-75.99 52.17-34.03 93.01 11.34 55.57 61.25-27.22 37.43-39.69 39.69-70.32 14.74zm1513.07-173.54c40.83-47.64 37.43-80.53-10.21-122.49-22.68-19.29-46.5-35.17-53.31-35.17-7.93 0-32.89 13.62-56.71 29.49-53.31 37.43-55.57 68.06-5.67 114.56 61.25 58.98 86.2 61.25 125.9 13.61zm-1694.54-27.22c-15.88-48.77-82.8-116.82-123.64-127.03-15.87-3.41-39.69-13.61-52.17-20.42-12.48-7.94-46.51-18.15-75.99-22.68-43.11-5.67-54.45-11.35-54.45-28.36 0-44.24 39.7-49.91 155.39-21.55 139.51 34.03 145.18 27.22 96.41-117.96-20.41-58.98-10.21-83.93 28.36-71.46 36.29 11.35 91.87 183.75 111.15 343.68 10.21 80.53 1.14 105.48-39.69 105.48-27.23 0-34.03-6.81-45.37-39.7zm2121.01-80.53c52.18-60.11 105.49-115.69 119.1-124.76 28.35-19.29 69.19-96.42 79.4-153.13 6.8-35.16 2.26-46.5-39.7-96.41-45.37-54.44-46.51-57.84-40.84-119.09 4.54-46.5 2.27-68.06-9.07-77.13-7.94-6.81-55.58-18.15-104.35-23.82-48.77-6.8-106.62-19.28-128.17-29.49-61.25-29.49-90.74-12.48-122.5 69.19-30.62 80.53-31.75 104.35-6.8 161.06 10.21 23.82 28.35 65.79 39.7 94.14 12.47 28.36 28.35 63.52 37.43 79.4 7.94 15.88 18.14 56.71 21.55 90.74 11.34 96.41 31.76 220.04 37.43 230.25 10.21 18.14 26.09 4.53 116.82-100.95zm-1581.12-49.91c15.88-18.14 72.59-69.18 127.04-111.15 204.16-162.2 251.79-226.85 251.79-342.54 0-90.74-28.35-146.32-95.27-186.01-28.36-17.02-54.44-41.97-61.25-60.12-29.49-77.13-46.5-86.2-162.19-88.47-124.77-3.4-134.98 2.27-169.01 94.14-21.55 57.85-23.81 82.8-20.41 350.48 2.27 220.04 6.8 286.96 18.15 286.96 6.8 0 13.61-6.8 13.61-15.88 0-7.94 6.8-21.55 15.88-28.35 18.14-14.75 52.17-117.96 85.06-259.74 27.22-110.02 29.49-115.69 57.85-115.69 45.37 0 47.64 36.29 11.34 172.4-49.9 190.55-52.17 198.49-89.6 259.74-19.29 30.62-35.16 61.25-35.16 66.92 0 21.55 23.82 11.34 52.17-22.69zm2142.57-29.49c17.01-6.8 51.04-61.24 51.04-82.8 0-5.67-7.94-18.14-17.01-28.35-24.96-23.82-65.79-3.4-88.47 43.1-18.15 38.56-14.75 55.58 14.74 66.92 9.08 3.4 18.15 6.81 19.28 6.81 1.14 1.13 10.21-2.27 20.42-5.68zm-217.77-358.41c30.62-41.97 15.88-99.82-30.63-116.83-28.35-9.07-35.16-6.81-64.65 26.09-40.83 45.37-40.83 63.51-4.54 99.81 35.17 35.16 69.19 31.76 99.82-9.07zm-1043.5-12.48c86.2-36.3 79.4-83.93-13.61-86.2-62.38-1.14-171.27-44.24-215.5-83.94-115.7-106.61-46.51-288.09 116.82-308.51 74.86-10.21 137.24 6.81 210.97 56.71 32.89 21.55 65.79 39.7 73.72 39.7 7.94 0 20.42-15.88 28.36-35.16 12.48-29.49 11.34-40.83-3.4-73.72-11.34-21.56-19.28-51.04-19.28-66.92 0-40.84-66.92-119.1-137.25-161.06-63.51-37.44-63.51-37.44-169-27.23-57.84 6.81-111.15 17.02-117.96 23.82-5.67 5.67-22.68 11.34-36.29 11.34s-46.51 7.94-73.73 18.15c-30.62 10.21-85.07 17.02-141.78 17.02-117.96-1.14-133.84 9.07-119.09 78.26 30.62 140.64 56.71 201.89 144.05 340.27 21.55 34.03 41.96 74.86 46.5 90.74 11.34 46.5 62.38 110.02 111.15 138.37 66.92 38.57 250.67 54.45 315.32 28.36zm349.35-129.3c9.07-11.35 28.35-49.91 43.1-85.07 24.95-63.52 24.95-65.79 4.53-96.41-47.63-73.73-53.31-82.8-65.78-123.63-9.08-28.36-39.7 2.27-39.7 39.7 0 15.88-10.21 70.32-22.68 119.09-21.56 89.6-20.42 107.75 14.74 151.99 15.88 19.28 46.5 17.01 65.79-5.67zm-250.67-80.53c24.95-20.42 24.95-21.56 6.81-56.72-10.21-20.41-44.24-56.71-76-81.66-73.72-57.85-123.63-61.25-178.07-12.48-60.12 55.58-41.97 115.69 46.5 154.26 54.44 23.82 170.14 21.55 200.76-3.4zm805.31-20.42c74.86-12.48 138.37-51.04 220.04-132.71 74.86-75.99 82.8-87.33 102.08-165.59 22.68-87.34 24.95-132.71 15.88-409.46-4.54-164.47-4.54-164.47-180.35-159.93-139.51 3.4-196.22 9.07-282.42 31.76-58.98 14.74-120.23 30.62-136.11 34.03-110.02 26.08-260.87 269.94-260.87 423.07 0 100.94 54.44 190.55 73.72 122.49 9.08-31.76 35.16-99.81 64.65-169 23.82-55.58 51.04-74.86 157.66-111.15 63.52-21.55 63.52-21.55 107.76 3.4 68.05 37.43 111.15 107.75 111.15 181.48 1.14 53.31-3.4 65.78-43.1 113.42-46.5 56.71-123.63 119.09-184.88 148.59-40.83 19.28-48.77 47.63-17.01 58.98 61.24 23.81 158.79 46.5 183.74 41.96 15.88-2.27 46.51-7.94 68.06-11.34zm-172.41-250.67c65.79-72.59 74.86-96.41 51.04-144.04-21.55-45.37-56.71-58.98-112.29-40.84-58.98 20.42-81.66 61.25-125.9 234.79-3.4 14.74-3.4 32.89 1.14 43.1 10.21 29.49 128.17-29.49 186.01-93.01zm-435.54-112.28c3.4-10.21 6.8-31.76 6.8-49.91 0-48.77-11.34-68.06-39.7-68.06-32.89 0-43.1 24.96-22.68 53.31 9.07 11.35 17.01 30.63 17.01 44.24 0 38.56 26.09 53.31 38.57 20.42zm-66.92-317.59c9.07-22.69 20.41-75.99 23.82-116.83 6.8-66.92 4.53-82.8-22.69-134.97-34.03-68.06-72.59-86.2-108.89-53.31-34.02 31.76-31.75 175.81 3.41 254.07 48.77 104.35 75.99 117.96 104.35 51.04zm-195.09 11.34c-1.14-11.34-7.94-46.5-14.75-78.26-18.14-79.4-4.53-246.13 22.69-293.77 44.23-73.72 165.6-79.39 227.98-9.07 57.85 64.65 66.92 94.14 66.92 226.85 0 140.64 5.67 169 29.49 148.58 9.07-6.8 15.88-17.01 15.88-21.55s17.01-35.16 38.56-66.92c49.91-72.59 57.85-128.17 36.3-254.07-27.22-164.46-73.73-241.59-237.06-393.58-136.11-125.9-169-144.05-190.55-102.08-23.82 45.37-91.87 197.36-124.76 277.89-32.9 80.53-37.43 105.48-41.97 227.98-3.4 121.36-2.27 142.91 19.28 189.42 13.61 28.35 23.82 56.71 23.82 62.38s22.68 35.16 49.91 64.65c49.9 53.31 82.8 62.38 78.26 21.55z" fill="#368157"/></svg>